<svg xmlns="http://www.w3.org/2000/svg"  width="68" height="64" viewBox="0 0 68 64">
  <path d="M60.4 32.3L53 20.8c-.6-.9-1.5-1.4-2.6-1.4H17.7c-1.1 0-2 .5-2.6 1.4L7.6 32.3c-.8 1.2-.6 2.7.3 3.8L31.7 63c.6.7 1.4 1 2.3 1 .9 0 1.7-.4 2.3-1L60 36.2c1-1.1 1.1-2.7.4-3.9zM48.8 22.1l-6.2 9.7-6.2-9.7h12.4zm-8.6 10.8H27.8l6.2-9.6 6.2 9.6zm-8.6-10.8l-6.2 9.7-6.2-9.7h12.4zm-14.9 1.1l6.2 9.7H10.5l6.2-9.7zM11 35.6h13.4l7.1 23.1L11 35.6zm23 22.3l-6.8-22.3h13.6L34 57.9zm2.5.8l7.1-23.1H57L36.5 58.7zm8.6-25.8l6.2-9.7 6.2 9.7H45.1zM4 32.9H1.3c-.7 0-1.3.6-1.3 1.4 0 .7.6 1.3 1.3 1.3H4c.7 0 1.3-.6 1.3-1.4 0-.7-.6-1.3-1.3-1.3zm62.7 0H64c-.7 0-1.3.6-1.3 1.4 0 .7.6 1.3 1.3 1.3h2.7c.7 0 1.3-.6 1.3-1.4 0-.7-.6-1.3-1.3-1.3zM58.1 10c-.5-.5-1.4-.5-1.9 0l-4.4 4.4c-.5.5-.5 1.4 0 1.9s1.4.5 1.9 0l4.4-4.4c.5-.5.5-1.3 0-1.9zm-41.8 4.5L11.9 10c-.5-.5-1.4-.5-1.9 0s-.5 1.4 0 1.9l4.4 4.4c.5.5 1.4.5 1.9 0s.5-1.3 0-1.8zM34 0c-.7 0-1.3.6-1.3 1.3V10c0 .7.6 1.3 1.3 1.4.7 0 1.3-.6 1.4-1.3V1.3C35.4.6 34.8 0 34 0zm1 13.6c-.5-.5-1.4-.5-1.9 0s-.5 1.4 0 1.9 1.4.5 1.9 0 .5-1.3 0-1.9z"/>
</svg>
